<?xml version="1.0" encoding="UTF-8"?>
<svg width="1480" height="420" viewBox="0 0 1480 420" fill="none" xmlns="http://www.w3.org/2000/svg">
  <rect width="1480" height="420" rx="48" fill="#FBF4E5"/>
  <g transform="translate(36 30) scale(0.35)">
    

  <defs>
    <linearGradient id="bg" x1="128" y1="96" x2="896" y2="928" gradientUnits="userSpaceOnUse">
      <stop stop-color="#243252"/>
      <stop offset="1" stop-color="#182033"/>
    </linearGradient>
    <linearGradient id="sheet" x1="252" y1="208" x2="784" y2="760" gradientUnits="userSpaceOnUse">
      <stop stop-color="#FBF4E5"/>
      <stop offset="1" stop-color="#F2E4C6"/>
    </linearGradient>
    <linearGradient id="bronze" x1="286" y1="228" x2="746" y2="744" gradientUnits="userSpaceOnUse">
      <stop stop-color="#D9A25F"/>
      <stop offset="1" stop-color="#B87A27"/>
    </linearGradient>
  </defs>
  <rect x="88" y="88" width="848" height="848" rx="236" fill="url(#bg)"/>
  <rect x="220" y="186" width="428" height="516" rx="52" transform="rotate(-6 220 186)" fill="url(#sheet)" stroke="url(#bronze)" stroke-width="22"/>
  <rect x="358" y="252" width="446" height="542" rx="58" fill="url(#sheet)" stroke="url(#bronze)" stroke-width="24"/>
  <circle cx="666" cy="520" r="118" fill="none" stroke="#3CA4B5" stroke-width="22"/>
  <circle cx="666" cy="520" r="62" fill="none" stroke="#D9A25F" stroke-width="20"/>
  <path d="M666 360V680" stroke="#3CA4B5" stroke-width="18" stroke-linecap="round"/>
  <path d="M506 520H826" stroke="#3CA4B5" stroke-width="18" stroke-linecap="round"/>
  <path d="M446 388H594" stroke="#44516D" stroke-width="20" stroke-linecap="round"/>
  <path d="M446 462H560" stroke="#44516D" stroke-width="20" stroke-linecap="round"/>
  <path d="M446 598H566" stroke="#44516D" stroke-width="20" stroke-linecap="round"/>
  <path d="M446 672H532" stroke="#44516D" stroke-width="20" stroke-linecap="round"/>

  </g>
  <text x="430" y="148" fill="#B87A27" font-size="34" font-family="Manrope, Segoe UI, sans-serif" letter-spacing="6">PBINFO ARCHIVAL OPERATOR CONSOLE</text>
  <text x="430" y="228" fill="#182033" font-size="88" font-weight="800" font-family="Sora, Segoe UI, sans-serif">Problem Archive</text>
  <text x="430" y="324" fill="#243252" font-size="88" font-weight="800" font-family="Sora, Segoe UI, sans-serif">Crawler</text>
</svg>